<?xml version="1.0" encoding="UTF-8" standalone="no"?>
<!DOCTYPE svg PUBLIC "-//W3C//DTD SVG 1.1//EN"
 "http://www.w3.org/Graphics/SVG/1.1/DTD/svg11.dtd">
<!-- Generated by graphviz version 2.47.0 (20210316.0004)
 -->
<!-- Title: dependencies Pages: 1 -->
<svg width="1018pt" height="284pt"
 viewBox="0.00 0.00 1018.00 284.00" xmlns="http://www.w3.org/2000/svg" xmlns:xlink="http://www.w3.org/1999/xlink">
<g id="graph0" class="graph" transform="scale(1 1) rotate(0) translate(4 280)">
<title>dependencies</title>
<polygon fill="white" stroke="transparent" points="-4,4 -4,-280 1014,-280 1014,4 -4,4"/>
<text text-anchor="start" x="484.01" y="-42.4" font-family="Times-12" font-weight="bold" font-size="14.00">Legend</text>
<polygon fill="#ffffb3" stroke="transparent" points="271,-10 271,-30 291,-30 291,-10 271,-10"/>
<text text-anchor="start" x="294.63" y="-15.4" font-family="Times-12" font-size="14.00"> &#160;Declarations</text>
<polygon fill="#8dd3c7" stroke="transparent" points="384,-10 384,-30 404,-30 404,-10 384,-10"/>
<text text-anchor="start" x="407.73" y="-15.4" font-family="Times-12" font-size="14.00"> &#160;Module</text>
<polygon fill="#80b1d3" stroke="transparent" points="470,-10 470,-30 490,-30 490,-10 470,-10"/>
<text text-anchor="start" x="493.78" y="-15.4" font-family="Times-12" font-size="14.00"> &#160;Bootstrap</text>
<polygon fill="#fdb462" stroke="transparent" points="567,-10 567,-30 587,-30 587,-10 567,-10"/>
<text text-anchor="start" x="590.67" y="-15.4" font-family="Times-12" font-size="14.00"> &#160;Providers</text>
<polygon fill="#fb8072" stroke="transparent" points="663,-10 663,-30 683,-30 683,-10 663,-10"/>
<text text-anchor="start" x="686.73" y="-15.4" font-family="Times-12" font-size="14.00"> &#160;Exports</text>
<g id="clust1" class="cluster">
<title>cluster_AppModule</title>
<polygon fill="none" stroke="black" stroke-dasharray="1,5" points="8,-70 8,-268 1002,-268 1002,-70 8,-70"/>
</g>
<g id="clust9" class="cluster">
<title>cluster_AppModule_imports</title>
<polygon fill="none" stroke="black" points="850,-78 850,-130 994,-130 994,-78 850,-78"/>
</g>
<g id="clust11" class="cluster">
<title>cluster_AppModule_bootstrap</title>
<polygon fill="none" stroke="black" points="451,-208 451,-260 575,-260 575,-208 451,-208"/>
</g>
<g id="clust2" class="cluster">
<title>cluster_AppModule_declarations</title>
<polygon fill="none" stroke="black" points="16,-78 16,-130 842,-130 842,-78 16,-78"/>
</g>
<!-- AppComponent -->
<g id="node1" class="node">
<title>AppComponent</title>
<polygon fill="#ffffb3" stroke="black" points="833.94,-122 728.06,-122 728.06,-86 833.94,-86 833.94,-122"/>
<text text-anchor="middle" x="781" y="-99.8" font-family="Times,serif" font-size="14.00">AppComponent</text>
</g>
<!-- AppModule -->
<g id="node7" class="node">
<title>AppModule</title>
<polygon fill="#8dd3c7" stroke="black" points="554.66,-187 551.66,-191 530.66,-191 527.66,-187 471.34,-187 471.34,-151 554.66,-151 554.66,-187"/>
<text text-anchor="middle" x="513" y="-164.8" font-family="Times,serif" font-size="14.00">AppModule</text>
</g>
<!-- AppComponent&#45;&gt;AppModule -->
<g id="edge1" class="edge">
<title>AppComponent&#45;&gt;AppModule</title>
<path fill="none" stroke="black" d="M781,-122.11C781,-141.34 781,-169 781,-169 781,-169 564.88,-169 564.88,-169"/>
<polygon fill="black" stroke="black" points="564.88,-165.5 554.88,-169 564.87,-172.5 564.88,-165.5"/>
</g>
<!-- CustomDatePipe -->
<g id="node2" class="node">
<title>CustomDatePipe</title>
<polygon fill="#ffffb3" stroke="black" points="710.38,-122 599.62,-122 599.62,-86 710.38,-86 710.38,-122"/>
<text text-anchor="middle" x="655" y="-99.8" font-family="Times,serif" font-size="14.00">CustomDatePipe</text>
</g>
<!-- CustomDatePipe&#45;&gt;AppModule -->
<g id="edge2" class="edge">
<title>CustomDatePipe&#45;&gt;AppModule</title>
<path fill="none" stroke="black" d="M655,-122.03C655,-138.4 655,-160 655,-160 655,-160 564.84,-160 564.84,-160"/>
<polygon fill="black" stroke="black" points="564.84,-156.5 554.84,-160 564.84,-163.5 564.84,-156.5"/>
</g>
<!-- MainTaskComponent -->
<g id="node3" class="node">
<title>MainTaskComponent</title>
<polygon fill="#ffffb3" stroke="black" points="582.09,-122 443.91,-122 443.91,-86 582.09,-86 582.09,-122"/>
<text text-anchor="middle" x="513" y="-99.8" font-family="Times,serif" font-size="14.00">MainTaskComponent</text>
</g>
<!-- MainTaskComponent&#45;&gt;AppModule -->
<g id="edge3" class="edge">
<title>MainTaskComponent&#45;&gt;AppModule</title>
<path fill="none" stroke="black" d="M513,-122.11C513,-122.11 513,-140.99 513,-140.99"/>
<polygon fill="black" stroke="black" points="509.5,-140.99 513,-150.99 516.5,-140.99 509.5,-140.99"/>
</g>
<!-- TaskColorDirective -->
<g id="node4" class="node">
<title>TaskColorDirective</title>
<polygon fill="#ffffb3" stroke="black" points="425.68,-122 298.32,-122 298.32,-86 425.68,-86 425.68,-122"/>
<text text-anchor="middle" x="362" y="-99.8" font-family="Times,serif" font-size="14.00">TaskColorDirective</text>
</g>
<!-- TaskColorDirective&#45;&gt;AppModule -->
<g id="edge4" class="edge">
<title>TaskColorDirective&#45;&gt;AppModule</title>
<path fill="none" stroke="black" d="M362,-122.03C362,-138.4 362,-160 362,-160 362,-160 461.34,-160 461.34,-160"/>
<polygon fill="black" stroke="black" points="461.34,-163.5 471.34,-160 461.34,-156.5 461.34,-163.5"/>
</g>
<!-- TaskComponent -->
<g id="node5" class="node">
<title>TaskComponent</title>
<polygon fill="#ffffb3" stroke="black" points="280.05,-122 171.95,-122 171.95,-86 280.05,-86 280.05,-122"/>
<text text-anchor="middle" x="226" y="-99.8" font-family="Times,serif" font-size="14.00">TaskComponent</text>
</g>
<!-- TaskComponent&#45;&gt;AppModule -->
<g id="edge5" class="edge">
<title>TaskComponent&#45;&gt;AppModule</title>
<path fill="none" stroke="black" d="M226,-122.11C226,-141.34 226,-169 226,-169 226,-169 461.27,-169 461.27,-169"/>
<polygon fill="black" stroke="black" points="461.27,-172.5 471.27,-169 461.27,-165.5 461.27,-172.5"/>
</g>
<!-- TaskListComponent -->
<g id="node6" class="node">
<title>TaskListComponent</title>
<polygon fill="#ffffb3" stroke="black" points="154.32,-122 23.68,-122 23.68,-86 154.32,-86 154.32,-122"/>
<text text-anchor="middle" x="89" y="-99.8" font-family="Times,serif" font-size="14.00">TaskListComponent</text>
</g>
<!-- TaskListComponent&#45;&gt;AppModule -->
<g id="edge6" class="edge">
<title>TaskListComponent&#45;&gt;AppModule</title>
<path fill="none" stroke="black" d="M89,-122.29C89,-144.21 89,-178 89,-178 89,-178 461.18,-178 461.18,-178"/>
<polygon fill="black" stroke="black" points="461.18,-181.5 471.18,-178 461.18,-174.5 461.18,-181.5"/>
</g>
<!-- AppComponent  -->
<g id="node9" class="node">
<title>AppComponent </title>
<polygon fill="#80b1d3" stroke="black" points="567.44,-252 458.56,-252 458.56,-216 567.44,-216 567.44,-252"/>
<text text-anchor="middle" x="513" y="-229.8" font-family="Times,serif" font-size="14.00">AppComponent </text>
</g>
<!-- AppModule&#45;&gt;AppComponent  -->
<g id="edge8" class="edge">
<title>AppModule&#45;&gt;AppComponent </title>
<path fill="none" stroke="black" stroke-dasharray="1,5" d="M513,-187.11C513,-187.11 513,-205.99 513,-205.99"/>
<polygon fill="black" stroke="black" points="509.5,-205.99 513,-215.99 516.5,-205.99 509.5,-205.99"/>
</g>
<!-- AppRoutingModule -->
<g id="node8" class="node">
<title>AppRoutingModule</title>
<polygon fill="#8dd3c7" stroke="black" points="986.27,-122 983.27,-126 962.27,-126 959.27,-122 857.73,-122 857.73,-86 986.27,-86 986.27,-122"/>
<text text-anchor="middle" x="922" y="-99.8" font-family="Times,serif" font-size="14.00">AppRoutingModule</text>
</g>
<!-- AppRoutingModule&#45;&gt;AppModule -->
<g id="edge7" class="edge">
<title>AppRoutingModule&#45;&gt;AppModule</title>
<path fill="none" stroke="black" d="M922,-122.29C922,-144.21 922,-178 922,-178 922,-178 564.85,-178 564.85,-178"/>
<polygon fill="black" stroke="black" points="564.85,-174.5 554.85,-178 564.85,-181.5 564.85,-174.5"/>
</g>
</g>
</svg>
