<?xml version="1.0" encoding="UTF-8" standalone="no"?>
<!DOCTYPE svg PUBLIC "-//W3C//DTD SVG 1.1//EN"
 "http://www.w3.org/Graphics/SVG/1.1/DTD/svg11.dtd">
<!-- Generated by graphviz version 2.47.0 (20210316.0004)
 -->
<!-- Title: dependencies Pages: 1 -->
<svg width="1196pt" height="284pt"
 viewBox="0.00 0.00 1196.00 284.00" xmlns="http://www.w3.org/2000/svg" xmlns:xlink="http://www.w3.org/1999/xlink">
<g id="graph0" class="graph" transform="scale(1 1) rotate(0) translate(4 280)">
<title>dependencies</title>
<polygon fill="white" stroke="transparent" points="-4,4 -4,-280 1192,-280 1192,4 -4,4"/>
<text text-anchor="start" x="573.01" y="-42.4" font-family="Times-12" font-weight="bold" font-size="14.00">Legend</text>
<polygon fill="#ffffb3" stroke="transparent" points="360,-10 360,-30 380,-30 380,-10 360,-10"/>
<text text-anchor="start" x="383.63" y="-15.4" font-family="Times-12" font-size="14.00"> &#160;Declarations</text>
<polygon fill="#8dd3c7" stroke="transparent" points="473,-10 473,-30 493,-30 493,-10 473,-10"/>
<text text-anchor="start" x="496.73" y="-15.4" font-family="Times-12" font-size="14.00"> &#160;Module</text>
<polygon fill="#80b1d3" stroke="transparent" points="559,-10 559,-30 579,-30 579,-10 559,-10"/>
<text text-anchor="start" x="582.78" y="-15.4" font-family="Times-12" font-size="14.00"> &#160;Bootstrap</text>
<polygon fill="#fdb462" stroke="transparent" points="656,-10 656,-30 676,-30 676,-10 656,-10"/>
<text text-anchor="start" x="679.67" y="-15.4" font-family="Times-12" font-size="14.00"> &#160;Providers</text>
<polygon fill="#fb8072" stroke="transparent" points="752,-10 752,-30 772,-30 772,-10 752,-10"/>
<text text-anchor="start" x="775.73" y="-15.4" font-family="Times-12" font-size="14.00"> &#160;Exports</text>
<g id="clust1" class="cluster">
<title>cluster_AppModule</title>
<polygon fill="none" stroke="black" stroke-dasharray="1,5" points="8,-70 8,-268 1002,-268 1002,-70 8,-70"/>
</g>
<g id="clust2" class="cluster">
<title>cluster_AppModule_declarations</title>
<polygon fill="none" stroke="black" points="168,-78 168,-130 994,-130 994,-78 168,-78"/>
</g>
<g id="clust9" class="cluster">
<title>cluster_AppModule_imports</title>
<polygon fill="none" stroke="black" points="16,-78 16,-130 160,-130 160,-78 16,-78"/>
</g>
<g id="clust11" class="cluster">
<title>cluster_AppModule_bootstrap</title>
<polygon fill="none" stroke="black" points="452,-208 452,-260 576,-260 576,-208 452,-208"/>
</g>
<g id="clust19" class="cluster">
<title>cluster_TasksModule</title>
<polygon fill="none" stroke="black" stroke-dasharray="1,5" points="1010,-70 1010,-195 1180,-195 1180,-70 1010,-70"/>
</g>
<g id="clust21" class="cluster">
<title>cluster_TasksModule_imports</title>
<polygon fill="none" stroke="black" points="1018,-78 1018,-130 1172,-130 1172,-78 1018,-78"/>
</g>
<!-- AppComponent -->
<g id="node1" class="node">
<title>AppComponent</title>
<polygon fill="#ffffb3" stroke="black" points="985.94,-122 880.06,-122 880.06,-86 985.94,-86 985.94,-122"/>
<text text-anchor="middle" x="933" y="-99.8" font-family="Times,serif" font-size="14.00">AppComponent</text>
</g>
<!-- AppModule -->
<g id="node7" class="node">
<title>AppModule</title>
<polygon fill="#8dd3c7" stroke="black" points="555.66,-187 552.66,-191 531.66,-191 528.66,-187 472.34,-187 472.34,-151 555.66,-151 555.66,-187"/>
<text text-anchor="middle" x="514" y="-164.8" font-family="Times,serif" font-size="14.00">AppModule</text>
</g>
<!-- AppComponent&#45;&gt;AppModule -->
<g id="edge1" class="edge">
<title>AppComponent&#45;&gt;AppModule</title>
<path fill="none" stroke="black" d="M933,-122.29C933,-144.21 933,-178 933,-178 933,-178 565.71,-178 565.71,-178"/>
<polygon fill="black" stroke="black" points="565.71,-174.5 555.71,-178 565.71,-181.5 565.71,-174.5"/>
</g>
<!-- CustomDatePipe -->
<g id="node2" class="node">
<title>CustomDatePipe</title>
<polygon fill="#ffffb3" stroke="black" points="862.38,-122 751.62,-122 751.62,-86 862.38,-86 862.38,-122"/>
<text text-anchor="middle" x="807" y="-99.8" font-family="Times,serif" font-size="14.00">CustomDatePipe</text>
</g>
<!-- CustomDatePipe&#45;&gt;AppModule -->
<g id="edge2" class="edge">
<title>CustomDatePipe&#45;&gt;AppModule</title>
<path fill="none" stroke="black" d="M807,-122.11C807,-141.34 807,-169 807,-169 807,-169 565.67,-169 565.67,-169"/>
<polygon fill="black" stroke="black" points="565.67,-165.5 555.67,-169 565.67,-172.5 565.67,-165.5"/>
</g>
<!-- MainTaskComponent -->
<g id="node3" class="node">
<title>MainTaskComponent</title>
<polygon fill="#ffffb3" stroke="black" points="734.09,-122 595.91,-122 595.91,-86 734.09,-86 734.09,-122"/>
<text text-anchor="middle" x="665" y="-99.8" font-family="Times,serif" font-size="14.00">MainTaskComponent</text>
</g>
<!-- MainTaskComponent&#45;&gt;AppModule -->
<g id="edge3" class="edge">
<title>MainTaskComponent&#45;&gt;AppModule</title>
<path fill="none" stroke="black" d="M665,-122.03C665,-138.4 665,-160 665,-160 665,-160 565.66,-160 565.66,-160"/>
<polygon fill="black" stroke="black" points="565.66,-156.5 555.66,-160 565.66,-163.5 565.66,-156.5"/>
</g>
<!-- TaskColorDirective -->
<g id="node4" class="node">
<title>TaskColorDirective</title>
<polygon fill="#ffffb3" stroke="black" points="577.68,-122 450.32,-122 450.32,-86 577.68,-86 577.68,-122"/>
<text text-anchor="middle" x="514" y="-99.8" font-family="Times,serif" font-size="14.00">TaskColorDirective</text>
</g>
<!-- TaskColorDirective&#45;&gt;AppModule -->
<g id="edge4" class="edge">
<title>TaskColorDirective&#45;&gt;AppModule</title>
<path fill="none" stroke="black" d="M514,-122.11C514,-122.11 514,-140.99 514,-140.99"/>
<polygon fill="black" stroke="black" points="510.5,-140.99 514,-150.99 517.5,-140.99 510.5,-140.99"/>
</g>
<!-- TaskComponent -->
<g id="node5" class="node">
<title>TaskComponent</title>
<polygon fill="#ffffb3" stroke="black" points="432.05,-122 323.95,-122 323.95,-86 432.05,-86 432.05,-122"/>
<text text-anchor="middle" x="378" y="-99.8" font-family="Times,serif" font-size="14.00">TaskComponent</text>
</g>
<!-- TaskComponent&#45;&gt;AppModule -->
<g id="edge5" class="edge">
<title>TaskComponent&#45;&gt;AppModule</title>
<path fill="none" stroke="black" d="M378,-122.03C378,-138.4 378,-160 378,-160 378,-160 462.09,-160 462.09,-160"/>
<polygon fill="black" stroke="black" points="462.09,-163.5 472.09,-160 462.09,-156.5 462.09,-163.5"/>
</g>
<!-- TaskListComponent -->
<g id="node6" class="node">
<title>TaskListComponent</title>
<polygon fill="#ffffb3" stroke="black" points="306.32,-122 175.68,-122 175.68,-86 306.32,-86 306.32,-122"/>
<text text-anchor="middle" x="241" y="-99.8" font-family="Times,serif" font-size="14.00">TaskListComponent</text>
</g>
<!-- TaskListComponent&#45;&gt;AppModule -->
<g id="edge6" class="edge">
<title>TaskListComponent&#45;&gt;AppModule</title>
<path fill="none" stroke="black" d="M241,-122.11C241,-141.34 241,-169 241,-169 241,-169 462.24,-169 462.24,-169"/>
<polygon fill="black" stroke="black" points="462.24,-172.5 472.24,-169 462.24,-165.5 462.24,-172.5"/>
</g>
<!-- AppComponent  -->
<g id="node9" class="node">
<title>AppComponent </title>
<polygon fill="#80b1d3" stroke="black" points="568.44,-252 459.56,-252 459.56,-216 568.44,-216 568.44,-252"/>
<text text-anchor="middle" x="514" y="-229.8" font-family="Times,serif" font-size="14.00">AppComponent </text>
</g>
<!-- AppModule&#45;&gt;AppComponent  -->
<g id="edge8" class="edge">
<title>AppModule&#45;&gt;AppComponent </title>
<path fill="none" stroke="black" stroke-dasharray="1,5" d="M514,-187.11C514,-187.11 514,-205.99 514,-205.99"/>
<polygon fill="black" stroke="black" points="510.5,-205.99 514,-215.99 517.5,-205.99 510.5,-205.99"/>
</g>
<!-- AppRoutingModule -->
<g id="node8" class="node">
<title>AppRoutingModule</title>
<polygon fill="#8dd3c7" stroke="black" points="152.27,-122 149.27,-126 128.27,-126 125.27,-122 23.73,-122 23.73,-86 152.27,-86 152.27,-122"/>
<text text-anchor="middle" x="88" y="-99.8" font-family="Times,serif" font-size="14.00">AppRoutingModule</text>
</g>
<!-- AppRoutingModule&#45;&gt;AppModule -->
<g id="edge7" class="edge">
<title>AppRoutingModule&#45;&gt;AppModule</title>
<path fill="none" stroke="black" d="M88,-122.29C88,-144.21 88,-178 88,-178 88,-178 461.99,-178 461.99,-178"/>
<polygon fill="black" stroke="black" points="461.99,-181.5 471.99,-178 461.99,-174.5 461.99,-181.5"/>
</g>
<!-- TasksRoutingModule -->
<g id="node10" class="node">
<title>TasksRoutingModule</title>
<polygon fill="#8dd3c7" stroke="black" points="1163.82,-122 1160.82,-126 1139.82,-126 1136.82,-122 1026.18,-122 1026.18,-86 1163.82,-86 1163.82,-122"/>
<text text-anchor="middle" x="1095" y="-99.8" font-family="Times,serif" font-size="14.00">TasksRoutingModule</text>
</g>
<!-- TasksModule -->
<g id="node11" class="node">
<title>TasksModule</title>
<polygon fill="#8dd3c7" stroke="black" points="1141.21,-187 1138.21,-191 1117.21,-191 1114.21,-187 1048.79,-187 1048.79,-151 1141.21,-151 1141.21,-187"/>
<text text-anchor="middle" x="1095" y="-164.8" font-family="Times,serif" font-size="14.00">TasksModule</text>
</g>
<!-- TasksRoutingModule&#45;&gt;TasksModule -->
<g id="edge9" class="edge">
<title>TasksRoutingModule&#45;&gt;TasksModule</title>
<path fill="none" stroke="black" d="M1095,-122.11C1095,-122.11 1095,-140.99 1095,-140.99"/>
<polygon fill="black" stroke="black" points="1091.5,-140.99 1095,-150.99 1098.5,-140.99 1091.5,-140.99"/>
</g>
</g>
</svg>
